<svg xmlns="http://www.w3.org/2000/svg" xmlns:xlink="http://www.w3.org/1999/xlink" viewBox="0 0 518 200.33"><defs><style>.cls-1{fill:none;}.cls-2{clip-path:url(#clip-path);}.cls-3{fill:#fb7299;}.cls-4{fill:#23ade5;}</style><clipPath id="clip-path"><rect class="cls-1" x="11.5" y="8.33" width="192" height="192"/></clipPath></defs><title>资源 2</title><g id="图层_2" data-name="图层 2"><g id="图层_1-2" data-name="图层 1"><g class="cls-2"><rect x="33.38" y="38.48" width="66.14" height="27.37"/><rect class="cls-3" x="125.46" y="38.48" width="56.16" height="27.37"/><rect class="cls-4" x="57.9" y="90.65" width="94.5" height="27.37"/><rect x="83.77" y="142.82" width="83.39" height="27.37"/></g><path d="M216.92,65.67V61.21h4.54V33.45h-4.54V29h9.44V43.75a12.32,12.32,0,0,1,18.1-.69A13,13,0,0,1,248,52.61a13.82,13.82,0,0,1-3.5,9.59,11.5,11.5,0,0,1-8.95,3.89A11.91,11.91,0,0,1,230,64.77a9.83,9.83,0,0,1-3.64-2.93v3.83ZM226.52,53A8.3,8.3,0,0,0,229,59.27a7.89,7.89,0,0,0,5.63,2.34,7.8,7.8,0,0,0,5.77-2.48,9.1,9.1,0,0,0,2.43-6.65A8.1,8.1,0,0,0,229,46.3,8.61,8.61,0,0,0,226.52,53Z"/><path d="M256.11,61.21V44.6h-4V40.14h9V61.21h3.95v4.46H252.15V61.21Zm-.72-29.74a3,3,0,0,1,.86-2.11,2.88,2.88,0,0,1,2.18-.9,3,3,0,0,1,2.13.87,2.85,2.85,0,0,1,.9,2.14,3,3,0,0,1-6.07,0Z"/><path d="M271.77,61.21V33.45h-4.54V29h9.55V61.21h3.9v4.46H267.23V61.21Z"/><path d="M287.64,61.21V44.6h-3.95V40.14h9V61.21h4v4.46H283.69V61.21Zm-.71-29.74a2.92,2.92,0,0,1,.86-2.11,2.86,2.86,0,0,1,2.17-.9,3,3,0,0,1,2.14.87,2.88,2.88,0,0,1,.89,2.14,3,3,0,0,1-6.06,0Z"/><path d="M299.11,65.67V61.21h4.54V33.45h-4.54V29h9.44V43.75a12.32,12.32,0,0,1,18.1-.69,13,13,0,0,1,3.57,9.55,13.82,13.82,0,0,1-3.49,9.59,11.5,11.5,0,0,1-9,3.89,11.91,11.91,0,0,1-5.59-1.32,9.83,9.83,0,0,1-3.64-2.93v3.83ZM308.71,53a8.3,8.3,0,0,0,2.44,6.31,7.95,7.95,0,0,0,11.4-.14A9.1,9.1,0,0,0,325,52.48a8.11,8.11,0,0,0-13.77-6.18Q308.71,48.61,308.71,53Z"/><path d="M338.29,61.21V44.6h-4V40.14h9V61.21h4v4.46H334.34V61.21Zm-.71-29.74a3,3,0,0,1,.86-2.11,2.86,2.86,0,0,1,2.17-.9,3,3,0,0,1,2.14.87,2.85,2.85,0,0,1,.89,2.14,2.9,2.9,0,0,1-.89,2.15,2.94,2.94,0,0,1-2.14.88,3,3,0,0,1-3-3Z"/><path d="M354,61.21V33.45h-4.53V29H359V61.21h3.91v4.46H349.42V61.21Z"/><path d="M369.83,61.21V44.6h-4V40.14h9V61.21h4v4.46H365.87V61.21Zm-.71-29.74a3,3,0,0,1,.85-2.11,2.88,2.88,0,0,1,2.18-.9,3,3,0,0,1,2.13.87,2.85,2.85,0,0,1,.9,2.14,3,3,0,0,1-6.06,0Z"/><path d="M381.53,50.5h15.82v5H381.53Z"/><path d="M249.12,113.21v4.46h-9.6v-3.75a11.82,11.82,0,0,1-9.12,4.17,12.73,12.73,0,0,1-8.76-3.4q-3.76-3.41-3.77-9.68t3.88-9.94a12.43,12.43,0,0,1,8.75-3.64,12,12,0,0,1,9,4.11V85.45h-4.9V81h9.91v32.22Zm-25.89-8.33a8.51,8.51,0,0,0,2.38,6.48,8.17,8.17,0,0,0,11.42-.11,8.74,8.74,0,0,0,2.49-6.61q0-4.24-2.54-6.41a8.6,8.6,0,0,0-5.71-2.16,7.41,7.41,0,0,0-5.72,2.55A8.92,8.92,0,0,0,223.23,104.88Z"/><path d="M277.23,113.21v4.46h-8.76v-3.12a11.37,11.37,0,0,1-8.12,3.54,8.85,8.85,0,0,1-6.05-2.27,7.39,7.39,0,0,1-2.57-5.8,7.48,7.48,0,0,1,2.73-5.91,9.77,9.77,0,0,1,6.58-2.34,12.61,12.61,0,0,1,6.93,2.16V101.4a9.42,9.42,0,0,0-.37-3,3.87,3.87,0,0,0-1.72-1.9,6.69,6.69,0,0,0-3.55-.84,5.78,5.78,0,0,0-5.46,3l-4.8-1.27q3.19-6,11-6a14.21,14.21,0,0,1,5,.78,7.31,7.31,0,0,1,3.13,2,6.69,6.69,0,0,1,1.38,2.65,20.41,20.41,0,0,1,.36,4.54v11.81Zm-9.26-5a10.66,10.66,0,0,0-6.56-2.53,5.2,5.2,0,0,0-3.49,1.21,4,4,0,0,0-1.39,3.14,4.09,4.09,0,0,0,1.22,3,4.54,4.54,0,0,0,3.34,1.21,9.93,9.93,0,0,0,6.88-3.06Z"/><path d="M288.85,92.14v3.09q4.83-3.48,8.81-3.48a6.83,6.83,0,0,1,4.1,1.17,5.38,5.38,0,0,1,2.12,2.87,18.51,18.51,0,0,1,.5,5v12.45h4.3v4.46h-9.31V101c0-1.94-.29-3.2-.87-3.79a2.87,2.87,0,0,0-2.13-.88c-2.22,0-4.72,1.08-7.52,3.24v13.66h4.41v4.46h-13.9v-4.46h4.48V96.6h-4.48V92.14Z"/><path d="M314.85,113.21V96.6h-4.24V92.14h9.25v3.22q4.53-3.61,8.87-3.61a6,6,0,0,1,6,4q5-4,9.28-4a7,7,0,0,1,4.07,1.09,5.32,5.32,0,0,1,2.15,2.77,16.62,16.62,0,0,1,.56,4.94v12.66h4.45v4.46h-9.46V101.45a16.79,16.79,0,0,0-.2-3.12,2.52,2.52,0,0,0-1-1.51,3.23,3.23,0,0,0-1.94-.59q-3.23,0-7.3,3.3v13.68h4.37v4.46h-9.38V101a7,7,0,0,0-.73-3.63,2.69,2.69,0,0,0-2.46-1.12q-2.84,0-7.31,3.3v13.68h4.48v4.46h-14v-4.46Z"/><path d="M383.56,113.21v4.46h-8.75v-3.12a11.39,11.39,0,0,1-8.12,3.54,8.85,8.85,0,0,1-6.05-2.27,7.36,7.36,0,0,1-2.57-5.8,7.48,7.48,0,0,1,2.73-5.91,9.77,9.77,0,0,1,6.58-2.34,12.61,12.61,0,0,1,6.93,2.16V101.4a9.42,9.42,0,0,0-.37-3,3.89,3.89,0,0,0-1.73-1.9,6.63,6.63,0,0,0-3.54-.84,5.77,5.77,0,0,0-5.46,3l-4.8-1.27q3.19-6,11-6a14.25,14.25,0,0,1,5,.78,7.31,7.31,0,0,1,3.13,2,6.69,6.69,0,0,1,1.38,2.65,20.41,20.41,0,0,1,.36,4.54v11.81Zm-9.25-5a10.66,10.66,0,0,0-6.57-2.53,5.19,5.19,0,0,0-3.48,1.21,4,4,0,0,0-1.39,3.14,4,4,0,0,0,1.22,3,4.54,4.54,0,0,0,3.34,1.21,9.93,9.93,0,0,0,6.88-3.06Z"/><path d="M390.16,113.21V85.45h-4.59V81h9.6V103.9l9.54-7.62h-4.24V92.14h14.1v4.14h-3.9l-9.57,8,9,9h4.48v4.46H408l-12.84-12.84v8.38h4.4v4.46h-14v-4.46Z"/><path d="M445.08,113.21v4.46h-9.41v-2.93q-4.41,3.35-8.44,3.35A7.48,7.48,0,0,1,423,117a5.37,5.37,0,0,1-2.23-2.9,21.15,21.15,0,0,1-.56-5.74V96.6H416.6V92.14h8.62V107.7a30,30,0,0,0,.16,3.8,2.56,2.56,0,0,0,.93,1.6,2.87,2.87,0,0,0,1.92.64q3.48,0,7.44-3.32V96.6h-4.51V92.14h9.52v21.07Z"/><path d="M447.27,102.5h15.82v5H447.27Z"/><path d="M241.6,144.14v9.65h-4.48a6,6,0,0,0-2.25-4.24,7.06,7.06,0,0,0-4.45-1.48,7,7,0,0,0-5.48,2.39,9.09,9.09,0,0,0-2.11,6.26,10.59,10.59,0,0,0,2,6.37,6.72,6.72,0,0,0,5.8,2.75,8,8,0,0,0,7.65-5l4.14,1.95q-3.42,7.62-12,7.62a11.8,11.8,0,0,1-9.54-4.14,14.38,14.38,0,0,1-3.48-9.54,12.8,12.8,0,0,1,3.8-9.53,12.05,12.05,0,0,1,8.75-3.76,10.65,10.65,0,0,1,7.17,2.51v-1.8Z"/><path d="M249.25,165.21V137.45h-4.54V133h9.55v32.22h3.9v4.46H244.71v-4.46Z"/><path d="M265.12,165.21V148.6h-3.95v-4.46h9v21.07h4v4.46H261.17v-4.46Zm-.71-29.74a3,3,0,0,1,.86-2.11,2.86,2.86,0,0,1,2.17-.9,3,3,0,0,1,2.14.87,2.85,2.85,0,0,1,.9,2.14,2.91,2.91,0,0,1-.9,2.15,2.94,2.94,0,0,1-2.14.88,2.91,2.91,0,0,1-2.15-.9A3,3,0,0,1,264.41,135.47Z"/><path d="M304.12,158.17H282.66a9.27,9.27,0,0,0,2.79,5.72,8.31,8.31,0,0,0,5.93,2.19,9.74,9.74,0,0,0,8.31-4.22l4.43,1.95a13.25,13.25,0,0,1-5.62,5,16.8,16.8,0,0,1-7.22,1.62,14.62,14.62,0,0,1-10-3.65,12.43,12.43,0,0,1-4.15-9.85,12.67,12.67,0,0,1,4.05-9.67,13.19,13.19,0,0,1,9.29-3.8,13.7,13.7,0,0,1,9.32,3.71Q304,150.83,304.12,158.17ZM299,154.53a9.11,9.11,0,0,0-2.79-4.86,7.74,7.74,0,0,0-5.57-2.18,7.34,7.34,0,0,0-5.14,2,8.42,8.42,0,0,0-2.61,5.07Z"/><path d="M317.07,144.14v3.09q4.81-3.48,8.8-3.48a6.81,6.81,0,0,1,4.1,1.17,5.45,5.45,0,0,1,2.13,2.87,18.93,18.93,0,0,1,.5,5v12.45h4.29v4.46h-9.3V153c0-1.94-.29-3.2-.87-3.79a2.89,2.89,0,0,0-2.14-.88c-2.21,0-4.72,1.08-7.51,3.24v13.66h4.4v4.46h-13.9v-4.46h4.49V148.6h-4.49v-4.46Z"/><path d="M338.71,148.6v-4.46H342v-3.93l5-4.58v8.51h4.72v4.46h-4.72V161a11.72,11.72,0,0,0,.33,3.68c.21.47.76.7,1.64.7a7.51,7.51,0,0,0,2.75-.53v4.56a11.39,11.39,0,0,1-3.85.69,6.25,6.25,0,0,1-3.72-1,4.26,4.26,0,0,1-1.79-2.54,25.36,25.36,0,0,1-.37-5.27V148.6Z"/><rect class="cls-1" width="518" height="200.33"/></g></g></svg>